<svg width="20" height="20" viewBox="0 0 56 56" fill="none" xmlns="http://www.w3.org/2000/svg"><path d="M7.80596 38.791C3.49485 38.791 -1.92859e-07 36.3179 0 33.2671C1.5636e-07 30.7937 2.29722 28.7 5.46418 27.9961L27.3209 27.9961C23.4546 34.4443 16.1635 38.791 7.80596 38.791Z" fill="url(#paint0_linear_67_1547)"></path><path d="M7.74121 14.8144C7.74121 7.18494 13.7863 1 21.2434 1C35.6997 1 48.3113 11.8704 54.9989 27.9965L55.0004 27.9965C48.3127 44.1277 35.7006 55.0017 21.2438 55.0017C13.7865 55.0017 7.74121 48.8148 7.74121 41.1828C7.74121 34.9951 11.7149 29.7574 17.1931 27.9965C11.7151 26.2361 7.74121 21.0001 7.74121 14.8144Z" fill="url(#paint1_linear_67_1547)"></path><path d="M21.2431 0.99C13.7857 0.99 7.74023 7.17804 7.74023 14.8114C7.74023 21.0001 11.714 26.2388 17.1922 28L55.0002 28C48.3124 11.8659 35.7001 0.99 21.2431 0.99Z" fill="url(#paint2_linear_67_1547)"></path><path d="M27.1535 41.2268C23.2604 41.2268 20.1045 38.1956 20.1045 34.4565C20.1045 31.425 22.1789 28.8588 25.0388 27.9961L44.7759 27.9961C41.2846 35.8993 34.7005 41.2268 27.1535 41.2268Z" fill="url(#paint3_linear_67_1547)" fill-opacity="0.7"></path><path fill-rule="evenodd" clip-rule="evenodd" d="M40.4388 22.6638C41.9675 22.6638 43.2067 21.4245 43.2067 19.8959C43.2067 18.3672 41.9675 17.1279 40.4388 17.1279C38.9101 17.1279 37.6709 18.3672 37.6709 19.8959C37.6709 21.4245 38.9101 22.6638 40.4388 22.6638Z" fill="white"></path><path d="M7.80596 17.2012C3.49485 17.2012 -1.92859e-07 19.6743 0 22.7251C1.5636e-07 25.1985 2.29722 27.2922 5.46418 27.9961L27.3209 27.9961C23.4546 21.5479 16.1635 17.2012 7.80596 17.2012Z" fill="url(#paint4_linear_67_1547)"></path><defs><linearGradient id="paint0_linear_67_1547" x1="2.29355e-8" y1="33.2944" x2="27" y2="33.2944" gradientUnits="userSpaceOnUse"><stop stop-color="#00A0F5"></stop><stop offset="1" stop-color="#4F3CE4" stop-opacity="0"></stop></linearGradient><linearGradient id="paint1_linear_67_1547" x1="31" y1="-15.5" x2="31.3708" y2="55.0017" gradientUnits="userSpaceOnUse"><stop stop-color="#44DEF8"></stop><stop offset="0.505208" stop-color="#5836C7"></stop><stop offset="1" stop-color="#432CB6"></stop></linearGradient><linearGradient id="paint2_linear_67_1547" x1="31.3702" y1="28" x2="31" y2="-6.5" gradientUnits="userSpaceOnUse"><stop stop-color="#41D4EE" stop-opacity="0"></stop><stop offset="1" stop-color="#40DBF0"></stop></linearGradient><linearGradient id="paint3_linear_67_1547" x1="20.1045" y1="27.9961" x2="20.1045" y2="41.2268" gradientUnits="userSpaceOnUse"><stop stop-color="#276EEC" stop-opacity="0"></stop><stop offset="1" stop-color="white"></stop></linearGradient><linearGradient id="paint4_linear_67_1547" x1="2.29355e-8" y1="22.4995" x2="27" y2="22.4995" gradientUnits="userSpaceOnUse"><stop stop-color="#00A0F5"></stop><stop offset="1" stop-opacity="0"></stop></linearGradient></defs></svg>